# xmcd
#
# Track frame offsets:
#	150
#	24955
#	44190
#	64517
#	91957
#	114942
#	130877
#	153222
#	179782
#	199190
#	223727
#	244337
#	266035
#	286845
#
# Disc length: 4153 seconds
#
# Revision: 2
# Processed by: cddbd v1.5.2PL0 Copyright (c) Steve Scherf et al.
# Submitted via: audiograbber 1.83.01
#
DISCID=cf10370e
DTITLE=Lady N. - Pleasure and Pain
DYEAR=1900
DGENRE=Folk
TTITLE0=Body To Body
TTITLE1=The Other Side
TTITLE2=Triumph And Failure
TTITLE3=Friday The 2nd Of May
TTITLE4=Prince Of The Darkness
TTITLE5=Where In The World
TTITLE6=Horemheb
TTITLE7=Lady Morgan
TTITLE8=Song For Dolores
TTITLE9=Pleasure And Pain
TTITLE10=The Most Loyal Friend Of All
TTITLE11=Niel And Chris
TTITLE12=The Picture
TTITLE13=The Lover In Me
EXTD=
EXTT0=
EXTT1=
EXTT2=
EXTT3=
EXTT4=
EXTT5=
EXTT6=
EXTT7=
EXTT8=
EXTT9=
EXTT10=
EXTT11=
EXTT12=
EXTT13=
PLAYORDER=
